<svg xmlns="http://www.w3.org/2000/svg" viewBox="0 0 33 32" width="33" height="32">
	<style>
		tspan { white-space:pre }
		.shp0 { fill: #95e1d3 } 
	</style>
	<g id="service 2">
		<g id="web design">
			<path id="BULLSEYE" class="shp0" d="M16 32C7.16 32 0 24.84 0 16C0 7.16 7.16 0 16 0C24.84 0 32 7.16 32 16C32 24.84 24.84 32 16 32ZM16 3C8.82 3 3 8.82 3 16C3 23.18 8.82 29 16 29C23.18 29 29 23.18 29 16C29 8.82 23.18 3 16 3ZM16 25.5C10.75 25.5 6.5 21.24 6.5 16C6.5 10.75 10.75 6.5 16 6.5C21.25 6.5 25.5 10.75 25.5 16C25.5 21.24 21.25 25.5 16 25.5ZM16 9.5C12.41 9.5 9.5 12.41 9.5 16C9.5 19.59 12.41 22.5 16 22.5C19.59 22.5 22.5 19.59 22.5 16C22.5 12.41 19.59 9.5 16 9.5ZM16 19C14.34 19 13 17.66 13 16C13 14.34 14.34 13 16 13C17.66 13 19 14.34 19 16C19 17.66 17.66 19 16 19Z" />
		</g>
	</g>
</svg>