<svg xmlns="http://www.w3.org/2000/svg" viewBox="0 0 16 16" width="16" height="16">
	<style>
		tspan { white-space:pre }
		.shp0 { fill: #95e1d3 } 
	</style>
	<g id="footer">
		<g id="1">
			<g id="icons">
				<path id="dribbble" class="shp0" d="M15.84 6.4C15.73 5.89 15.58 5.38 15.37 4.9C15.17 4.43 14.92 3.97 14.63 3.54C14.35 3.12 14.02 2.72 13.66 2.36C13.3 2 12.9 1.67 12.47 1.38C12.05 1.09 11.59 0.84 11.11 0.64C10.63 0.44 10.13 0.28 9.61 0.18C9.08 0.07 8.54 0.01 8 0.01C7.46 0.01 6.92 0.07 6.39 0.18C5.87 0.28 5.37 0.44 4.89 0.64C4.41 0.84 3.95 1.09 3.53 1.38C3.1 1.67 2.7 2 2.34 2.36C1.98 2.72 1.65 3.12 1.37 3.54C1.08 3.97 0.83 4.43 0.63 4.9C0.42 5.38 0.27 5.89 0.16 6.4C0.05 6.93 0 7.47 0 8.01C0 8.56 0.05 9.1 0.16 9.63C0.27 10.14 0.42 10.65 0.63 11.13C0.83 11.6 1.08 12.06 1.37 12.49C1.65 12.91 1.98 13.31 2.34 13.67C2.7 14.03 3.1 14.36 3.53 14.65C3.95 14.94 4.41 15.19 4.89 15.39C5.37 15.59 5.87 15.75 6.39 15.85C6.92 15.96 7.46 16.02 8 16.02C8.54 16.02 9.08 15.96 9.61 15.85C10.13 15.75 10.63 15.59 11.11 15.39C11.59 15.19 12.05 14.94 12.47 14.65C12.9 14.36 13.3 14.03 13.66 13.67C14.02 13.31 14.35 12.91 14.63 12.49C14.92 12.06 15.17 11.6 15.37 11.13C15.58 10.65 15.73 10.14 15.84 9.63C15.95 9.1 16 8.56 16 8.01C16 7.47 15.95 6.93 15.84 6.4ZM14.83 7.95C14.73 7.93 12.42 7.43 10.07 7.72C10.02 7.61 9.97 7.49 9.92 7.37C9.78 7.04 9.63 6.7 9.47 6.38C12.17 5.28 13.26 3.69 13.28 3.68C14.23 4.84 14.81 6.33 14.83 7.95ZM12.51 2.89C12.5 2.91 11.52 4.4 8.94 5.36C7.78 3.22 6.49 1.51 6.39 1.38C6.91 1.25 7.44 1.18 8 1.18C9.73 1.18 11.31 1.83 12.51 2.89ZM6.36 1.38C6.36 1.38 6.36 1.38 6.36 1.38C6.36 1.38 6.35 1.38 6.34 1.39C6.35 1.38 6.36 1.38 6.36 1.38ZM5.08 1.84C5.18 1.96 6.44 3.67 7.62 5.77C4.34 6.64 1.49 6.61 1.31 6.61C1.76 4.49 3.18 2.74 5.08 1.84ZM1.17 8.01C1.17 7.94 1.17 7.87 1.17 7.8C1.29 7.8 4.67 7.88 8.19 6.83C8.38 7.21 8.57 7.6 8.74 7.99C8.65 8.01 8.56 8.04 8.47 8.07C4.79 9.26 2.92 12.58 2.92 12.58C2.92 12.58 2.92 12.58 2.92 12.58C1.83 11.37 1.17 9.77 1.17 8.01ZM8 14.85C6.35 14.85 4.83 14.26 3.65 13.28C3.74 13.35 3.8 13.4 3.8 13.4C3.8 13.4 5.11 10.54 9.16 9.13C9.18 9.13 9.19 9.12 9.21 9.12C10.17 11.62 10.57 13.71 10.67 14.31C9.85 14.65 8.95 14.85 8 14.85ZM11.82 13.68C11.75 13.27 11.38 11.26 10.49 8.8C12.69 8.45 14.6 9.05 14.75 9.1C14.44 11 13.35 12.65 11.82 13.68Z" />
			</g>
		</g>
	</g>
</svg>