<svg xmlns="http://www.w3.org/2000/svg" viewBox="0 0 29 32" width="29" height="32">
	<style>
		tspan { white-space:pre }
		.shp0 { fill: #95e1d3 } 
	</style>
	<g id="service 2">
		<g id="creativity">
			<path id="EQUALIZER" class="shp0" d="M26.5 16.5L23.5 16.5C22.67 16.5 22 15.83 22 15L22 9C22 8.17 22.67 7.5 23.5 7.5L26.5 7.5C27.33 7.5 28 8.17 28 9L28 15C28 15.83 27.33 16.5 26.5 16.5ZM23.5 1.5C23.5 0.67 24.17 0 25 0C25.83 0 26.5 0.67 26.5 1.5L26.5 6L23.5 6L23.5 1.5ZM15.5 24.5L12.5 24.5C11.67 24.5 11 23.83 11 23L11 17C11 16.17 11.67 15.5 12.5 15.5L15.5 15.5C16.33 15.5 17 16.17 17 17L17 23C17 23.83 16.33 24.5 15.5 24.5ZM12.5 1.5C12.5 0.67 13.17 0 14 0C14.83 0 15.5 0.67 15.5 1.5L15.5 14L12.5 14L12.5 1.5ZM4.5 20.5L1.5 20.5C0.67 20.5 0 19.83 0 19L0 13C0 12.17 0.67 11.5 1.5 11.5L4.5 11.5C5.33 11.5 6 12.17 6 13L6 19C6 19.83 5.33 20.5 4.5 20.5ZM1.5 1.5C1.5 0.67 2.17 0 3 0C3.83 0 4.5 0.67 4.5 1.5L4.5 10L1.5 10L1.5 1.5ZM4.5 30.5C4.5 31.33 3.83 32 3 32C2.17 32 1.5 31.33 1.5 30.5L1.5 22L4.5 22L4.5 30.5ZM15.5 30.5C15.5 31.33 14.83 32 14 32C13.17 32 12.5 31.33 12.5 30.5L12.5 26L15.5 26L15.5 30.5ZM26.5 30.5C26.5 31.33 25.83 32 25 32C24.17 32 23.5 31.33 23.5 30.5L23.5 18L26.5 18L26.5 30.5Z" />
		</g>
	</g>
</svg>