<svg xmlns="http://www.w3.org/2000/svg" viewBox="0 0 8 16" width="8" height="16">
	<style>
		tspan { white-space:pre }
		.shp0 { fill: #95e1d3 } 
	</style>
	<g id="footer">
		<g id="1">
			<g id="icons">
				<path id="facebook" class="shp0" d="M7.99 0.01C7.99 0.94 7.99 2.59 7.99 2.59C7.99 2.59 6.09 2.4 5.62 3.13C5.36 3.53 5.51 4.69 5.49 5.53C6.32 5.53 7.18 5.53 8.01 5.53C7.8 6.51 7.64 7.17 7.49 8.01C6.77 8.01 5.48 8.01 5.48 8.01L5.48 16.02C5.48 16.02 3.1 16.02 1.99 16.02C1.99 13.55 1.99 10.67 1.99 8.05C1.45 8.05 1.05 8.05 0.5 8.05C0.5 7.12 0.5 6.45 0.5 5.53C1.03 5.53 1.45 5.53 1.97 5.53C2.05 3.69 2.08 1.86 2.99 0.93C4.02 -0.11 5 0.01 7.99 0.01Z" />
			</g>
		</g>
	</g>
</svg>