<svg xmlns="http://www.w3.org/2000/svg" viewBox="0 0 16 14" width="16" height="14">
	<style>
		tspan { white-space:pre }
		.shp0 { fill: #95e1d3 } 
	</style>
	<g id="footer">
		<g id="1">
			<g id="icons">
				<path id="google plus" class="shp0" d="M13.5 3.72L13.5 6.16L12.5 6.16L12.5 3.72L10 3.72L10 2.72L12.5 2.72L12.5 0.28L13.5 0.28L13.5 2.72L16 2.72L16 3.72L13.5 3.72ZM6.59 1.25C7.47 1.74 7.99 2.53 7.99 3.58C7.99 4.45 7.45 5.14 6.75 5.68C6.07 6.2 5.94 6.42 5.94 6.86C5.94 7.24 6.67 7.89 7.05 8.15C8.17 8.93 8.5 9.65 8.5 10.85C8.5 12.34 7.05 14.02 4.38 14.02C2.04 14.02 0 12.9 0 11.4C0 9.88 1.87 8.41 4.21 8.41C4.46 8.41 4.7 8.4 4.94 8.4C4.62 8.09 4.37 7.71 4.37 7.25C4.37 6.98 4.46 6.7 4.58 6.46C4.45 6.47 4.32 6.45 4.19 6.45C2.26 6.45 0.98 5.06 0.98 3.4C0.98 1.76 2.76 0.26 4.65 0.26C5.7 0.26 8.87 0.26 8.87 0.26L7.92 1.25L6.59 1.25ZM4.66 8.8C3.04 8.78 1.58 9.77 1.58 10.95C1.58 12.16 2.75 13.05 4.37 13.05C6.65 13.05 7.45 12.23 7.45 11.02C7.45 10.87 7.43 10.73 7.39 10.59C7.22 9.9 6.58 9.57 5.71 8.97C5.39 8.86 5.03 8.8 4.66 8.8ZM6.48 3.6C6.29 2.19 5.21 1.07 4.12 1.04C3.03 1.01 2.3 2.08 2.49 3.48C2.68 4.88 3.71 6.05 4.8 6.08C5.89 6.11 6.66 5 6.48 3.6Z" />
			</g>
		</g>
	</g>
</svg>