<svg xmlns="http://www.w3.org/2000/svg" viewBox="0 0 16 16" width="16" height="16">
	<style>
		tspan { white-space:pre }
		.shp0 { fill: #95e1d3 } 
	</style>
	<g id="footer">
		<g id="1">
			<g id="icons">
				<path id="instagram" class="shp0" d="M14 16.01L2 16.01C0.9 16.01 0 15.12 0 14.02L0 2.02C0 0.91 0.9 0.01 2 0.01L14 0.01C15.1 0.01 16 0.91 16 2.02L16 14.02C16 15.12 15.1 16.01 14 16.01ZM8 4.91C6.75 4.91 5.68 5.65 5.19 6.71L5.19 6.71C5.18 6.73 5.18 6.74 5.17 6.75C5.14 6.81 5.12 6.88 5.09 6.95C5.08 6.98 5.07 7.01 5.06 7.05C5.03 7.12 5.01 7.19 5 7.26C4.99 7.29 4.98 7.33 4.97 7.36C4.95 7.44 4.94 7.51 4.93 7.59C4.93 7.62 4.92 7.65 4.92 7.68C4.91 7.79 4.9 7.9 4.9 8.01C4.9 9.73 6.29 11.11 8 11.11C9.71 11.11 11.1 9.73 11.1 8.01C11.1 7.9 11.09 7.79 11.08 7.68C11.08 7.65 11.07 7.62 11.07 7.59C11.06 7.51 11.05 7.44 11.03 7.36C11.02 7.33 11.01 7.29 11 7.26C10.99 7.19 10.97 7.12 10.94 7.05C10.93 7.01 10.92 6.98 10.91 6.95C10.88 6.88 10.86 6.81 10.83 6.75C10.82 6.74 10.82 6.73 10.81 6.71L10.81 6.71C10.32 5.65 9.25 4.91 8 4.91ZM14.2 2.62C14.2 2.17 13.84 1.82 13.4 1.82L11.8 1.82C11.36 1.82 11 2.17 11 2.62L11 4.22C11 4.66 11.36 5.01 11.8 5.01L13.4 5.01C13.84 5.01 14.2 4.66 14.2 4.22L14.2 2.62ZM14.2 6.71L12.73 6.71C12.84 7.13 12.9 7.56 12.9 8.01C12.9 10.72 10.71 12.91 8 12.91C5.29 12.91 3.1 10.72 3.1 8.01C3.1 7.56 3.16 7.13 3.27 6.71L1.8 6.71L1.8 13.42C1.8 13.86 2.16 14.21 2.6 14.21L13.4 14.21C13.84 14.21 14.2 13.86 14.2 13.42L14.2 6.71Z" />
			</g>
		</g>
	</g>
</svg>