<svg xmlns="http://www.w3.org/2000/svg" viewBox="0 0 18 18" width="18" height="18">
	<style>
		tspan { white-space:pre }
		.shp0 { fill: #ffffff } 
	</style>
	<g id="banner">
		<g id="menu">
			<path id="MAGNIFYING GLASS" class="shp0" d="M17.32 14.98C17.62 15.28 17.8 15.69 17.8 16.15C17.8 17.06 17.06 17.8 16.15 17.8C15.69 17.8 15.28 17.61 14.98 17.32L14.98 17.32L10.15 12.48C9.17 13.06 8.02 13.4 6.8 13.4C3.15 13.4 0.2 10.45 0.2 6.8C0.2 3.15 3.15 0.2 6.8 0.2C10.45 0.2 13.4 3.15 13.4 6.8C13.4 8.02 13.06 9.16 12.48 10.15L17.32 14.98L17.32 14.98ZM6.8 1.85C4.07 1.85 1.85 4.07 1.85 6.8C1.85 9.53 4.07 11.75 6.8 11.75C9.53 11.75 11.75 9.53 11.75 6.8C11.75 4.07 9.53 1.85 6.8 1.85Z" />
		</g>
	</g>
</svg>