<svg xmlns="http://www.w3.org/2000/svg" viewBox="0 0 30 30" width="30" height="30">
	<style>
		tspan { white-space:pre }
		.shp0 { fill: #95e1d3 } 
	</style>
	<g id="service 2">
		<g id="photography">
			<path id="PICTURE" class="shp0" d="M30 24C30 24.65 29.58 25.2 29 25.41L29 27.09C29.58 27.3 30 27.85 30 28.5C30 29.33 29.33 30 28.5 30C27.85 30 27.3 29.58 27.09 29L25.41 29C25.2 29.58 24.65 30 24 30C23.35 30 22.8 29.58 22.59 29L20.91 29C20.7 29.58 20.15 30 19.5 30C18.85 30 18.3 29.58 18.09 29L16.41 29C16.2 29.58 15.65 30 15 30C14.35 30 13.8 29.58 13.59 29L11.91 29C11.7 29.58 11.15 30 10.5 30C9.85 30 9.3 29.58 9.09 29L7.41 29C7.2 29.58 6.65 30 6 30C5.35 30 4.8 29.58 4.59 29L2.91 29C2.7 29.58 2.15 30 1.5 30C0.67 30 0 29.33 0 28.5C0 27.85 0.42 27.3 1 27.09L1 25.41C0.42 25.2 0 24.65 0 24C0 23.35 0.42 22.8 1 22.59L1 20.91C0.42 20.7 0 20.15 0 19.5C0 18.85 0.42 18.3 1 18.09L1 16.41C0.42 16.2 0 15.65 0 15C0 14.35 0.42 13.8 1 13.59L1 11.91C0.42 11.7 0 11.15 0 10.5C0 9.85 0.42 9.3 1 9.09L1 7.41C0.42 7.2 0 6.65 0 6C0 5.35 0.42 4.8 1 4.59L1 2.91C0.42 2.7 0 2.15 0 1.5C0 0.67 0.67 0 1.5 0C2.15 0 2.7 0.42 2.91 1L4.59 1C4.8 0.42 5.35 0 6 0C6.65 0 7.2 0.42 7.41 1L9.09 1C9.3 0.42 9.85 0 10.5 0C11.15 0 11.7 0.42 11.91 1L13.59 1C13.8 0.42 14.35 0 15 0C15.65 0 16.2 0.42 16.41 1L18.09 1C18.3 0.42 18.85 0 19.5 0C20.15 0 20.7 0.42 20.91 1L22.59 1C22.8 0.42 23.35 0 24 0C24.65 0 25.2 0.42 25.41 1L27.09 1C27.3 0.42 27.85 0 28.5 0C29.33 0 30 0.67 30 1.5C30 2.15 29.58 2.7 29 2.91L29 4.59C29.58 4.8 30 5.35 30 6C30 6.65 29.58 7.2 29 7.41L29 9.09C29.58 9.3 30 9.85 30 10.5C30 11.15 29.58 11.7 29 11.91L29 13.59C29.58 13.8 30 14.35 30 15C30 15.65 29.58 16.2 29 16.41L29 18.09C29.58 18.3 30 18.85 30 19.5C30 20.15 29.58 20.7 29 20.91L29 22.59C29.58 22.8 30 23.35 30 24ZM26 4L4 4L4 26L26 26L26 4ZM13 20L20 11.5L24.5 18.5L24.5 24.5L5.5 24.5L11.5 18.5L13 20ZM10 13C8.34 13 7 11.65 7 10C7 8.34 8.34 7 10 7C11.66 7 13 8.34 13 10C13 11.65 11.66 13 10 13Z" />
		</g>
	</g>
</svg>