<svg xmlns="http://www.w3.org/2000/svg" viewBox="0 0 20 26" width="20" height="26">
	<style>
		tspan { white-space:pre }
		.shp0 { fill: #f38181 } 
	</style>
	<g id="map">
		<path id="PIN 2" class="shp0" d="M10 25.8C10 25.8 0.4 15.1 0.4 9.8C0.4 4.5 4.7 0.2 10 0.2C15.3 0.2 19.6 4.5 19.6 9.8C19.6 15.1 10 25.8 10 25.8ZM10 3.4C6.47 3.4 3.6 6.27 3.6 9.8C3.6 13.33 6.47 16.2 10 16.2C13.53 16.2 16.4 13.33 16.4 9.8C16.4 6.27 13.53 3.4 10 3.4ZM10 13C8.23 13 6.8 11.57 6.8 9.8C6.8 8.03 8.23 6.6 10 6.6C11.77 6.6 13.2 8.03 13.2 9.8C13.2 11.57 11.77 13 10 13Z" />
	</g>
</svg>