<svg xmlns="http://www.w3.org/2000/svg" viewBox="0 0 13 16" width="13" height="16">
	<style>
		tspan { white-space:pre }
		.shp0 { fill: #95e1d3 } 
	</style>
	<g id="footer">
		<g id="1">
			<g id="icons">
				<path id="pinterest" class="shp0" d="M5.84 10.42C5.71 10.94 5.58 11.49 5.45 12.02C5.31 12.55 5.19 13.08 5 13.57C4.67 14.37 4.26 15.14 3.72 15.77C3.36 16.19 3.44 16.02 3.33 16C3.25 15.98 3.24 15.9 3.22 15.78C3.13 15.14 3.19 14.41 3.23 13.69C3.26 12.88 3.44 12.2 3.6 11.52C3.9 10.23 4.19 8.97 4.49 7.67C4.51 7.59 4.57 7.44 4.55 7.39C4.41 7.03 4.32 6.71 4.28 6.33C4.24 5.9 4.27 5.49 4.37 5.12C4.54 4.46 4.94 3.87 5.55 3.66C5.94 3.52 6.37 3.58 6.64 3.74C6.91 3.9 7.09 4.15 7.18 4.52C7.27 4.9 7.2 5.36 7.13 5.7C6.96 6.46 6.74 7.03 6.54 7.77C6.44 8.13 6.33 8.51 6.42 8.9C6.51 9.26 6.7 9.51 6.95 9.7C7.22 9.89 7.53 10 7.97 9.98C8.74 9.95 9.27 9.46 9.63 9C10.2 8.26 10.54 7.26 10.67 6.07C10.71 5.69 10.75 5.25 10.72 4.81C10.66 4.01 10.41 3.37 10.01 2.86C9.63 2.39 9.1 2.01 8.44 1.8C7.79 1.58 6.9 1.51 6.1 1.65C4.65 1.9 3.63 2.72 3.03 3.86C2.71 4.45 2.5 5.14 2.5 5.99C2.5 6.65 2.67 7.16 2.93 7.55C3.01 7.68 3.13 7.78 3.22 7.93C3.33 8.13 3.2 8.43 3.14 8.65C3.07 8.92 3.06 9.29 2.75 9.29C2.63 9.29 2.46 9.2 2.36 9.14C1.54 8.69 1.04 7.87 0.84 6.81C0.72 6.16 0.72 5.41 0.84 4.78C0.96 4.18 1.18 3.62 1.43 3.17C1.94 2.23 2.68 1.48 3.59 0.94C4.29 0.53 5.07 0.24 6.03 0.1C6.35 0.05 6.68 0.04 7.03 0.02C8.08 -0.03 9.02 0.21 9.74 0.52C10.49 0.86 11.09 1.31 11.6 1.87C12.12 2.44 12.51 3.1 12.75 3.93C12.87 4.37 13 4.83 13 5.36C13 5.9 12.88 6.37 12.8 6.84C12.51 8.61 11.67 10.06 10.4 10.88C10.1 11.08 9.73 11.26 9.31 11.39C8.89 11.51 8.42 11.6 7.91 11.56C7.41 11.53 7.01 11.39 6.67 11.2C6.33 11.01 6.05 10.78 5.84 10.42Z" />
			</g>
		</g>
	</g>
</svg>