<svg xmlns="http://www.w3.org/2000/svg" viewBox="0 0 18 15" width="18" height="15">
	<style>
		tspan { white-space:pre }
		.shp0 { fill: #ffffff } 
	</style>
	<g id="banner">
		<g id="menu">
			<path id="SHOPPING CART" class="shp0" d="M17.73 3.66L17.73 3.66L15.25 9.16L15.25 9.16C15.13 9.43 14.87 9.63 14.55 9.65L14.55 9.65L7.43 10.12L7.84 11.3L15.6 11.3C16.51 11.3 17.25 12.04 17.25 12.95C17.25 13.86 16.51 14.6 15.6 14.6C14.69 14.6 13.95 13.86 13.95 12.95L6.25 12.95C6.25 13.86 5.51 14.6 4.6 14.6C3.69 14.6 2.95 13.86 2.95 12.95C2.95 12.04 3.69 11.3 4.6 11.3L6.09 11.3L2.91 2.22L1.02 2.22C0.57 2.22 0.2 1.86 0.2 1.4C0.2 0.94 0.57 0.57 1.02 0.57L3.5 0.57C3.86 0.57 4.16 0.81 4.28 1.13L4.28 1.13L4.76 2.5L16.97 2.5C17.43 2.5 17.8 2.87 17.8 3.32C17.8 3.45 17.77 3.56 17.73 3.66ZM5.34 4.15L6.86 8.51L13.95 8.03L15.7 4.15L5.34 4.15Z" />
		</g>
	</g>
</svg>