<svg xmlns="http://www.w3.org/2000/svg" viewBox="0 0 64 61" width="64" height="61">
	<style>
		tspan { white-space:pre }
		.shp0 { fill: #95e1d3 } 
	</style>
	<g id="quote">
		<path id="SPEECH 4" class="shp0" d="M60 36L59.1 36L59.1 36L58 36L58 41L58 41C58 41.2 57.98 41.41 57.94 41.6C57.91 41.74 57.86 41.87 57.82 42C57.8 42.05 57.79 42.11 57.76 42.17C57.72 42.28 57.65 42.39 57.59 42.49C57.55 42.55 57.53 42.62 57.49 42.68C57.39 42.82 57.28 42.95 57.15 43.08C57.14 43.09 57.13 43.11 57.12 43.12C56.59 43.65 55.85 43.98 55.04 43.99C55.02 43.99 55.01 44 55 44L55 44L55 44C54.17 44 53.42 43.66 52.88 43.12L45.76 36L45.4 36L45.4 36L18 36C16.34 36 15 34.66 15 33L15 3C15 1.34 16.34 0 18 0L60 0C61.66 0 63 1.34 63 3L63 33C63 34.66 61.66 36 60 36ZM44.51 39L50.84 45.32L50.85 45.32C51.93 46.35 53.39 47 55 47L55 49C55 50.66 53.66 52 52 52L52 52L30.9 52L30.9 52L24 52L24 52L21 52L21 52L20.24 52L12.12 60.12C11.58 60.66 10.83 61 10 61L10 61L10 61C9.99 61 9.98 60.99 9.96 60.99C9.15 60.98 8.41 60.65 7.88 60.12C7.87 60.11 7.86 60.09 7.85 60.08C7.72 59.95 7.61 59.82 7.51 59.67C7.47 59.62 7.45 59.55 7.41 59.49C7.35 59.38 7.28 59.28 7.24 59.17C7.21 59.11 7.2 59.05 7.18 59C7.14 58.87 7.09 58.74 7.06 58.6C7.02 58.41 7 58.21 7 58L7 58L7 52L6.5 52L6.5 52L3 52C1.34 52 0 50.65 0 49L0 15C0 15 0 15 0 15C0 13.34 1.34 12 3 12L12 12L12 33C12 36.31 14.69 39 18 39L44.51 39Z" />
	</g>
</svg>