<svg xmlns="http://www.w3.org/2000/svg" viewBox="0 0 10 16" width="10" height="16">
	<style>
		tspan { white-space:pre }
		.shp0 { fill: #95e1d3 } 
	</style>
	<g id="footer">
		<g id="1">
			<g id="icons">
				<path id="tumblr" class="shp0" d="M10.01 15.15C9.33 15.47 8.71 15.69 8.16 15.82C7.61 15.95 7.01 16.02 6.37 16.02C5.64 16.02 5.21 15.93 4.65 15.74C4.09 15.56 3.62 15.29 3.22 14.95C2.83 14.61 2.55 14.24 2.4 13.86C2.25 13.47 2.17 12.92 2.17 12.18L2.17 6.57L0.01 6.57L0.01 4.3C0.63 4.1 1.36 3.8 1.8 3.42C2.25 3.04 2.61 2.58 2.88 2.05C3.15 1.51 3.33 0.83 3.44 0.01L5.7 0.01L5.7 3.71L9.38 3.71L9.38 6.57L5.7 6.57L5.7 10.67C5.7 11.6 5.69 12.14 5.79 12.4C5.88 12.66 6.13 12.93 6.39 13.09C6.75 13.3 7.15 13.41 7.6 13.41C8.41 13.41 9.21 13.15 10.01 12.62L10.01 15.15Z" />
			</g>
		</g>
	</g>
</svg>