<svg xmlns="http://www.w3.org/2000/svg" viewBox="0 0 16 14" width="16" height="14">
	<style>
		tspan { white-space:pre }
		.shp0 { fill: #95e1d3 } 
	</style>
	<g id="footer">
		<g id="1">
			<g id="icons">
				<path id="twitter" class="shp0" d="M10.88 0.52C12.15 0.49 12.83 0.96 13.48 1.55C14.03 1.5 14.74 1.19 15.16 0.98C15.3 0.9 15.43 0.83 15.57 0.76C15.33 1.4 15 1.91 14.5 2.3C14.39 2.38 14.28 2.5 14.14 2.55C14.14 2.55 14.14 2.56 14.14 2.56C14.85 2.55 15.44 2.23 16 2.06C16 2.06 16 2.06 16 2.06C15.71 2.53 15.31 3 14.89 3.34C14.72 3.48 14.55 3.61 14.37 3.75C14.38 4.5 14.36 5.22 14.22 5.86C13.4 9.54 11.23 12.04 7.79 13.11C6.56 13.5 4.56 13.66 3.15 13.31C2.45 13.13 1.81 12.94 1.22 12.68C0.89 12.53 0.58 12.38 0.29 12.2C0.19 12.14 0.1 12.08 0 12.02C0.32 12.03 0.69 12.12 1.05 12.06C1.37 12.01 1.69 12.02 1.99 11.96C2.73 11.79 3.39 11.58 3.96 11.25C4.23 11.09 4.65 10.9 4.84 10.66C4.48 10.67 4.14 10.58 3.87 10.49C2.81 10.11 2.19 9.42 1.79 8.39C2.11 8.42 3.03 8.51 3.25 8.32C2.85 8.3 2.46 8.07 2.18 7.89C1.32 7.36 0.63 6.46 0.63 5.08C0.74 5.14 0.86 5.19 0.97 5.24C1.18 5.33 1.4 5.38 1.66 5.43C1.77 5.46 1.98 5.52 2.11 5.47C2.1 5.47 2.1 5.47 2.09 5.47C1.92 5.28 1.66 5.15 1.49 4.95C0.94 4.27 0.43 3.22 0.75 1.97C0.84 1.65 0.97 1.37 1.11 1.11C1.11 1.12 1.12 1.12 1.12 1.12C1.18 1.26 1.33 1.35 1.42 1.47C1.7 1.81 2.04 2.12 2.39 2.4C3.59 3.34 4.67 3.91 6.41 4.34C6.85 4.45 7.35 4.53 7.88 4.53C7.73 4.1 7.78 3.41 7.9 2.99C8.19 1.94 8.82 1.19 9.75 0.79C9.98 0.69 10.22 0.62 10.48 0.56C10.62 0.55 10.75 0.53 10.88 0.52Z" />
			</g>
		</g>
	</g>
</svg>