<svg xmlns="http://www.w3.org/2000/svg" viewBox="0 0 20 12" width="20" height="12">
	<style>
		tspan { white-space:pre }
		.shp0 { fill: #95e1d3 } 
	</style>
	<g id="blog">
		<g id="2">
			<path id="VIEW" class="shp0" d="M19.71 5.78C19.71 5.78 19.71 5.79 19.71 5.8C19.71 5.8 19.71 5.81 19.71 5.81C19.71 5.82 19.71 5.82 19.7 5.83C19.7 5.84 19.7 5.84 19.7 5.85C19.7 5.85 19.7 5.85 19.7 5.85C19.68 6.01 19.61 6.15 19.5 6.26C19.29 6.51 19.07 6.74 18.85 6.97C17.64 8.2 16.25 9.3 14.72 10.09C13.75 10.6 12.71 11.01 11.64 11.21C10.45 11.43 9.26 11.41 8.09 11.16C6.05 10.71 4.2 9.61 2.58 8.3C1.83 7.68 1.09 7.02 0.47 6.26C0.2 5.93 0.2 5.54 0.47 5.21C0.68 4.97 0.9 4.74 1.12 4.51C2.34 3.28 3.73 2.18 5.25 1.39C6.22 0.88 7.26 0.47 8.34 0.27C9.52 0.05 10.71 0.06 11.89 0.32C13.93 0.76 15.77 1.87 17.39 3.18C18.14 3.79 18.88 4.46 19.5 5.21C19.61 5.33 19.68 5.47 19.7 5.62C19.7 5.63 19.7 5.63 19.7 5.63C19.7 5.63 19.7 5.64 19.7 5.65C19.71 5.65 19.71 5.66 19.71 5.66C19.71 5.67 19.71 5.67 19.71 5.68C19.71 5.69 19.71 5.69 19.71 5.7C19.71 5.71 19.71 5.73 19.71 5.74C19.71 5.75 19.71 5.76 19.71 5.78ZM9.99 1.94C7.98 1.94 6.35 3.57 6.35 5.59C6.35 7.6 7.98 9.23 9.99 9.23C12 9.23 13.64 7.6 13.64 5.59C13.64 3.57 12 1.94 9.99 1.94ZM9.99 7.41C8.98 7.41 8.17 6.59 8.17 5.59C8.17 4.58 8.98 3.76 9.99 3.76C11 3.76 11.81 4.58 11.81 5.59C11.81 6.59 11 7.41 9.99 7.41Z" />
		</g>
	</g>
</svg>